<svg height="511pt" viewBox="-105 1 511 511.999" width="511pt" xmlns="http://www.w3.org/2000/svg"><path d="m257.929688 374.761719c28.265624-28.414063 43.832031-66.226563 43.832031-106.472657 0-31.800781-10.714844-60.121093-20.167969-85.105468-8.15625-21.5625-15.863281-41.925782-15.863281-61.523438 0-15.171875 4.175781-46.351562 5.785156-57.085937l3.445313-22.984375h-76.824219l6.222656-34.480469-39.398437-7.109375-7.507813 41.589844h-129.652344l3.445313 22.984375c1.609375 10.734375 5.785156 41.910156 5.785156 57.085937 0 19.550782-7.804688 39.894532-16.070312 61.4375-9.589844 25-20.460938 53.339844-20.460938 85.1875 0 76.445313 57.242188 139.769532 131.113281 149.371094v54.308594h-80.070312v40.035156h200.175781v-40.035156h-80.070312v-54.371094c32.617187-4.3125 62.714843-19.136719 86.28125-42.832031zm-29.074219-293.136719c-1.574219 13.121094-3.160157 29.074219-3.160157 40.035156h-42.011718l7.226562-40.035156zm-78.628907 0-7.226562 40.035156h-65.933594c0-10.960937-1.585937-26.914062-3.160156-40.035156zm-109.691406 186.664062c0-24.433593 8.648438-46.980468 17.804688-70.851562 4.476562-11.671875 9.019531-23.535156 12.511718-35.742188h160.980469c3.441407 12.175782 7.910157 24.011719 12.316407 35.65625 9.039062 23.890626 17.578124 46.457032 17.578124 70.9375 0 60.980469-49.390624 110.59375-110.097656 110.59375v1h-.5v-1c-60.980468 0-110.59375-49.613281-110.59375-110.59375zm0 0"/></svg>