<svg height="512pt" viewBox="0 -1 512 512" width="512pt" xmlns="http://www.w3.org/2000/svg"><path d="m402.335938 0c-55.308594 0-101.175782 40.582031-108.605469 93.132812h-278.730469c-8.285156 0-15 6.714844-15 15v66.261719c0 49.042969 39.898438 88.941407 88.941406 88.941407h10.695313c1.320312 34.664062 29.917969 62.464843 64.898437 62.464843h29.132813v78.777344h-1.933594c-50.3125 0-91.246094 40.382813-91.246094 90.015625 0 8.285156 6.714844 15 15 15h186.359375c8.285156 0 15-6.714844 15-15 0-49.632812-40.933594-90.015625-91.25-90.015625h-1.929687v-78.777344h29.132812c34.980469 0 63.578125-27.796875 64.894531-62.464843h10.695313c33.957031 0 63.523437-19.125 78.503906-47.171876 58.363281-2.367187 105.105469-49.914062 105.105469-108.03125 0-59.625-49.195312-108.132812-109.664062-108.132812zm-65.277344 63.429688 29.359375 29.703124h-42.257813c2.164063-10.875 6.640625-20.941406 12.898438-29.703124zm-111.457032 371.148437c28.488282 0 52.496094 19.15625 59.308594 45.015625h-152.484375c6.8125-25.859375 30.820313-45.015625 59.3125-45.015625zm27.199219-138.777344h-88.265625c-18.4375 0-33.585937-14.347656-34.875-32.464843h158.011719c-1.285156 18.117187-16.433594 32.464843-34.871094 32.464843zm134.535157-121.40625c0 32.5-26.441407 58.941407-58.945313 58.941407h-239.449219c-32.5 0-58.941406-26.441407-58.941406-58.941407v-51.261719h357.335938zm5.726562-96.980469-34.261719-34.664062c12.523438-8.050781 27.476563-12.75 43.535157-12.75h.003906zm38.757812-41.84375c17.28125 6.777344 31.601563 19.3125 40.457032 35.195313l-50.421875 15.730469zm-15.117187 149.398438c.414063-3.46875.632813-6.996094.632813-10.574219v-33.664062l33.5 29.328125c-9.828126 7.417968-21.457032 12.632812-34.132813 14.910156zm54.234375-37.183594-38.042969-33.304687 48.585938-15.160157c.332031 2.894532.519531 5.832032.519531 8.8125 0 14.46875-4.046875 28.019532-11.0625 39.652344zm0 0"/></svg>